<svg aria-hidden="true" style="position: absolute; width: 0; height: 0; overflow: hidden;" version="1.1" xmlns="http://www.w3.org/2000/svg" xmlns:xlink="http://www.w3.org/1999/xlink">
<defs>
<symbol id="icon-align-justified" viewBox="0 0 20 20">
<title>align-justified</title>
<path d="M1 1h18v2h-18v-2zM1 9h18v2h-18v-2zM1 17h18v2h-18v-2zM1 5h18v2h-18v-2zM1 13h18v2h-18v-2z"></path>
</symbol>
<symbol id="icon-arrow-down" viewBox="0 0 20 20">
<title>arrow-down</title>
<path d="M9 16.172l-6.071-6.071-1.414 1.414 8.485 8.485 8.485-8.485-1.414-1.414-6.071 6.071v-16.172h-2z"></path>
</symbol>
<symbol id="icon-chat-bubble-dots" viewBox="0 0 20 20">
<title>chat-bubble-dots</title>
<path d="M10 15l-4 4v-4h-4c-1.105 0-2-0.895-2-2v0-10c0-1.1 0.9-2 2-2h16c1.105 0 2 0.895 2 2v0 10c0 1.105-0.895 2-2 2v0h-8zM5 7v2h2v-2h-2zM9 7v2h2v-2h-2zM13 7v2h2v-2h-2z"></path>
</symbol>
<symbol id="icon-checkmark" viewBox="0 0 20 20">
<title>checkmark</title>
<path d="M0 11l2-2 5 5 11-11 2 2-13 13z"></path>
</symbol>
<symbol id="icon-download" viewBox="0 0 20 20">
<title>download</title>
<path d="M13 8v-6h-6v6h-5l8 8 8-8h-5zM0 18h20v2h-20v-2z"></path>
</symbol>
<symbol id="icon-edit-pencil" viewBox="0 0 20 20">
<title>edit-pencil</title>
<path d="M12.3 3.7l4 4-12.3 12.3h-4v-4l12.3-12.3zM13.7 2.3l2.3-2.3 4 4-2.3 2.3-4-4z"></path>
</symbol>
<symbol id="icon-location" viewBox="0 0 20 20">
<title>location</title>
<path d="M10 20s-7-9.13-7-13c0-3.866 3.134-7 7-7s7 3.134 7 7v0c0 3.87-7 13-7 13zM10 9c1.105 0 2-0.895 2-2s-0.895-2-2-2v0c-1.105 0-2 0.895-2 2s0.895 2 2 2v0z"></path>
</symbol>
<symbol id="icon-location-current" viewBox="0 0 20 20">
<title>location-current</title>
<path d="M0 0l20 8-8 4-2 8z"></path>
</symbol>
<symbol id="icon-send" viewBox="0 0 20 20">
<title>send</title>
<path d="M0 0l20 10-20 10v-20zM0 8v4l10-2-10-2z"></path>
</symbol>
<symbol id="icon-thumbs-down" viewBox="0 0 20 20">
<title>thumbs-down</title>
<path d="M11 20c-1.105 0-2-0.895-2-2v0-6h-7c-1.105 0-2-0.895-2-2v0-2l2.3-6.12c0.467-1.069 1.489-1.816 2.692-1.88l0.008-0h8c1.105 0 2 0.895 2 2v0 8l-3 7v3h-1zM17 10v-10h3v10h-3z"></path>
</symbol>
<symbol id="icon-thumbs-up" viewBox="0 0 20 20">
<title>thumbs-up</title>
<path d="M11 0h1v3l3 7v8c0 1.105-0.895 2-2 2v0h-8c-1.1 0-2.31-0.84-2.7-1.88l-2.3-6.12v-2c0-1.105 0.895-2 2-2v0h7v-6c0-1.105 0.895-2 2-2v0zM17 10h3v10h-3v-10z"></path>
</symbol>
<symbol id="icon-trash" viewBox="0 0 20 20">
<title>trash</title>
<path d="M6 2l2-2h4l2 2h4v2h-16v-2h4zM3 6h14l-1 14h-12l-1-14zM8 8v10h1v-10h-1zM11 8v10h1v-10h-1z"></path>
</symbol>
<symbol id="icon-bullhorn" viewBox="0 0 32 32">
<title>bullhorn</title>
<path d="M32 13.414c0-6.279-1.837-11.373-4.109-11.413 0.009-0 0.018-0.001 0.027-0.001h-2.592c0 0-6.088 4.573-14.851 6.367-0.268 1.415-0.438 3.102-0.438 5.047s0.171 3.631 0.438 5.047c8.763 1.794 14.851 6.367 14.851 6.367h2.592c-0.009 0-0.018-0.001-0.027-0.001 2.272-0.040 4.109-5.134 4.109-11.413zM27.026 23.102c-0.293 0-0.61-0.304-0.773-0.486-0.395-0.439-0.775-1.124-1.1-1.979-0.727-1.913-1.127-4.478-1.127-7.223s0.4-5.309 1.127-7.223c0.325-0.855 0.705-1.54 1.1-1.979 0.163-0.182 0.48-0.486 0.773-0.486s0.61 0.304 0.773 0.486c0.395 0.439 0.775 1.124 1.1 1.979 0.727 1.913 1.127 4.479 1.127 7.223s-0.4 5.309-1.127 7.223c-0.325 0.855-0.705 1.54-1.1 1.979-0.163 0.181-0.48 0.486-0.773 0.486zM7.869 13.414c0-1.623 0.119-3.201 0.345-4.659-1.48 0.205-2.779 0.323-4.386 0.323-2.096 0-2.096 0-2.096 0l-1.733 2.959v2.755l1.733 2.959c0 0 0 0 2.096 0 1.606 0 2.905 0.118 4.386 0.323-0.226-1.458-0.345-3.036-0.345-4.659zM11.505 20.068l-4-0.766 2.558 10.048c0.132 0.52 0.648 0.782 1.146 0.583l3.705-1.483c0.498-0.199 0.698-0.749 0.444-1.221l-3.853-7.161zM27.026 17.148c-0.113 0-0.235-0.117-0.298-0.187-0.152-0.169-0.299-0.433-0.424-0.763-0.28-0.738-0.434-1.726-0.434-2.784s0.154-2.046 0.434-2.784c0.125-0.33 0.272-0.593 0.424-0.763 0.063-0.070 0.185-0.187 0.298-0.187s0.235 0.117 0.298 0.187c0.152 0.169 0.299 0.433 0.424 0.763 0.28 0.737 0.434 1.726 0.434 2.784s-0.154 2.046-0.434 2.784c-0.125 0.33-0.272 0.593-0.424 0.763-0.063 0.070-0.185 0.187-0.298 0.187z"></path>
</symbol>
</defs>
</svg>
